<?xml version="1.0" standalone="no"?>
<!DOCTYPE svg PUBLIC "-//W3C//DTD SVG 20010904//EN"
 "http://www.w3.org/TR/2001/REC-SVG-20010904/DTD/svg10.dtd">
<svg version="1.0" xmlns="http://www.w3.org/2000/svg"
 width="510.000000pt" height="510.000000pt" viewBox="0 0 510.000000 510.000000"
 preserveAspectRatio="xMidYMid meet">
<metadata>
Created by potrace 1.14, written by Peter Selinger 2001-2017
</metadata>
<g transform="translate(0.000000,510.000000) scale(0.100000,-0.100000)"
fill="#000000" stroke="none">
<path d="M2264 5084 c-228 -27 -454 -85 -664 -169 -323 -130 -598 -312 -845
-560 -77 -77 -149 -151 -160 -165 -147 -188 -236 -324 -314 -480 -24 -47 -47
-93 -52 -102 -62 -119 -172 -476 -194 -633 -3 -23 -7 -52 -10 -65 -26 -136
-27 -611 0 -710 2 -8 6 -37 10 -65 14 -116 96 -419 131 -486 8 -16 14 -30 13
-31 -6 -16 124 -281 197 -399 131 -215 349 -467 544 -630 56 -47 225 -170 285
-206 55 -34 147 -84 205 -113 36 -18 73 -36 83 -41 34 -18 174 -72 260 -100
164 -55 360 -97 532 -116 138 -15 551 -7 625 12 8 2 33 6 55 10 216 31 522
129 715 230 75 39 147 77 165 88 48 29 203 132 230 154 17 13 35 27 40 31 27
20 112 89 131 107 12 11 48 45 80 76 81 78 127 128 211 233 70 86 203 278 203
291 0 4 9 19 19 34 18 26 92 169 124 241 43 98 111 293 133 380 64 261 82 423
78 685 -2 116 -5 224 -7 240 -26 182 -43 268 -82 409 -19 69 -55 179 -80 244
-46 117 -157 339 -211 423 -35 53 -155 222 -163 229 -3 3 -19 23 -36 45 -42
57 -255 272 -316 320 -28 22 -56 45 -63 50 -25 23 -134 105 -163 122 -17 10
-69 42 -116 71 -88 54 -298 159 -377 187 -105 39 -260 87 -320 101 -36 8 -74
17 -85 19 -11 3 -37 8 -58 11 -21 3 -44 7 -50 8 -7 2 -34 6 -62 10 -27 4 -61
10 -75 13 -60 11 -461 10 -566 -3z"/>
</g>
</svg>
